<mxfile host="app.diagrams.net" agent="Mozilla/5.0 (Windows NT 10.0; Win64; x64) AppleWebKit/537.36 (KHTML, like Gecko) Chrome/136.0.0.0 Safari/537.36" version="27.0.5">
  <diagram name="Page-1" id="Y2wi71jQAL4ZwRvFeoPq">
    <mxGraphModel dx="64" dy="26" grid="0" gridSize="10" guides="1" tooltips="1" connect="1" arrows="1" fold="1" page="0" pageScale="1" pageWidth="850" pageHeight="1100" math="0" shadow="0">
      <root>
        <mxCell id="0" />
        <mxCell id="1" parent="0" />
        <mxCell id="TLuGOkzC2Zvtu-69kkCt-1" value="Manager" style="shape=umlActor;verticalLabelPosition=bottom;verticalAlign=top;html=1;outlineConnect=0;" vertex="1" parent="1">
          <mxGeometry x="353" y="50" width="30" height="60" as="geometry" />
        </mxCell>
        <mxCell id="TLuGOkzC2Zvtu-69kkCt-3" value="Mngr_Home_Scr" style="html=1;whiteSpace=wrap;" vertex="1" parent="1">
          <mxGeometry x="473" y="90" width="100" height="30" as="geometry" />
        </mxCell>
        <mxCell id="TLuGOkzC2Zvtu-69kkCt-4" value="TenAp_Mngr_Scr" style="html=1;whiteSpace=wrap;" vertex="1" parent="1">
          <mxGeometry x="593" y="90" width="100" height="30" as="geometry" />
        </mxCell>
        <mxCell id="TLuGOkzC2Zvtu-69kkCt-5" value="Tnt_List_Scr" style="html=1;whiteSpace=wrap;" vertex="1" parent="1">
          <mxGeometry x="715.5" y="90" width="85" height="30" as="geometry" />
        </mxCell>
        <mxCell id="TLuGOkzC2Zvtu-69kkCt-6" value="NewTnt_Add_Scr" style="html=1;whiteSpace=wrap;" vertex="1" parent="1">
          <mxGeometry x="823" y="90" width="100" height="30" as="geometry" />
        </mxCell>
        <mxCell id="TLuGOkzC2Zvtu-69kkCt-7" value="Tenant&amp;nbsp;" style="html=1;whiteSpace=wrap;" vertex="1" parent="1">
          <mxGeometry x="948" y="90" width="70" height="30" as="geometry" />
        </mxCell>
        <mxCell id="TLuGOkzC2Zvtu-69kkCt-8" value="Manage_1" style="html=1;whiteSpace=wrap;" vertex="1" parent="1">
          <mxGeometry x="1133" y="90" width="80" height="30" as="geometry" />
        </mxCell>
        <mxCell id="TLuGOkzC2Zvtu-69kkCt-9" value="Apartment" style="html=1;whiteSpace=wrap;" vertex="1" parent="1">
          <mxGeometry x="1243" y="90" width="100" height="30" as="geometry" />
        </mxCell>
        <mxCell id="TLuGOkzC2Zvtu-69kkCt-11" value="" style="endArrow=none;dashed=1;html=1;dashPattern=1 3;strokeWidth=2;rounded=0;exitX=0.174;exitY=0.999;exitDx=0;exitDy=0;exitPerimeter=0;" edge="1" parent="1" source="TLuGOkzC2Zvtu-69kkCt-98">
          <mxGeometry width="50" height="50" relative="1" as="geometry">
            <mxPoint x="373" y="960" as="sourcePoint" />
            <mxPoint x="373" y="130" as="targetPoint" />
          </mxGeometry>
        </mxCell>
        <mxCell id="TLuGOkzC2Zvtu-69kkCt-13" value="" style="endArrow=none;dashed=1;html=1;dashPattern=1 3;strokeWidth=2;rounded=0;" edge="1" parent="1" source="TLuGOkzC2Zvtu-69kkCt-21">
          <mxGeometry width="50" height="50" relative="1" as="geometry">
            <mxPoint x="523" y="510" as="sourcePoint" />
            <mxPoint x="523" y="120" as="targetPoint" />
          </mxGeometry>
        </mxCell>
        <mxCell id="TLuGOkzC2Zvtu-69kkCt-14" value="" style="endArrow=none;dashed=1;html=1;dashPattern=1 3;strokeWidth=2;rounded=0;entryX=0.5;entryY=1;entryDx=0;entryDy=0;" edge="1" parent="1" source="TLuGOkzC2Zvtu-69kkCt-26" target="TLuGOkzC2Zvtu-69kkCt-4">
          <mxGeometry width="50" height="50" relative="1" as="geometry">
            <mxPoint x="708" y="510" as="sourcePoint" />
            <mxPoint x="708" y="120" as="targetPoint" />
          </mxGeometry>
        </mxCell>
        <mxCell id="TLuGOkzC2Zvtu-69kkCt-15" value="" style="endArrow=none;dashed=1;html=1;dashPattern=1 3;strokeWidth=2;rounded=0;entryX=0.5;entryY=1;entryDx=0;entryDy=0;" edge="1" parent="1" source="TLuGOkzC2Zvtu-69kkCt-42" target="TLuGOkzC2Zvtu-69kkCt-5">
          <mxGeometry width="50" height="50" relative="1" as="geometry">
            <mxPoint x="758" y="520" as="sourcePoint" />
            <mxPoint x="873" y="120" as="targetPoint" />
          </mxGeometry>
        </mxCell>
        <mxCell id="TLuGOkzC2Zvtu-69kkCt-16" value="" style="endArrow=none;dashed=1;html=1;dashPattern=1 3;strokeWidth=2;rounded=0;entryX=0.5;entryY=1;entryDx=0;entryDy=0;" edge="1" parent="1" source="TLuGOkzC2Zvtu-69kkCt-54" target="TLuGOkzC2Zvtu-69kkCt-6">
          <mxGeometry width="50" height="50" relative="1" as="geometry">
            <mxPoint x="873" y="520" as="sourcePoint" />
            <mxPoint x="1022.41" y="120" as="targetPoint" />
          </mxGeometry>
        </mxCell>
        <mxCell id="TLuGOkzC2Zvtu-69kkCt-17" value="" style="endArrow=none;dashed=1;html=1;dashPattern=1 3;strokeWidth=2;rounded=0;entryX=0.5;entryY=1;entryDx=0;entryDy=0;" edge="1" parent="1" source="TLuGOkzC2Zvtu-69kkCt-35" target="TLuGOkzC2Zvtu-69kkCt-7">
          <mxGeometry width="50" height="50" relative="1" as="geometry">
            <mxPoint x="983" y="510" as="sourcePoint" />
            <mxPoint x="1182.4099999999999" y="120" as="targetPoint" />
          </mxGeometry>
        </mxCell>
        <mxCell id="TLuGOkzC2Zvtu-69kkCt-18" value="" style="endArrow=none;dashed=1;html=1;dashPattern=1 3;strokeWidth=2;rounded=0;entryX=0.5;entryY=1;entryDx=0;entryDy=0;" edge="1" parent="1" source="TLuGOkzC2Zvtu-69kkCt-32" target="TLuGOkzC2Zvtu-69kkCt-8">
          <mxGeometry width="50" height="50" relative="1" as="geometry">
            <mxPoint x="1173" y="510" as="sourcePoint" />
            <mxPoint x="1342.4099999999999" y="120" as="targetPoint" />
          </mxGeometry>
        </mxCell>
        <mxCell id="TLuGOkzC2Zvtu-69kkCt-19" value="" style="endArrow=none;dashed=1;html=1;dashPattern=1 3;strokeWidth=2;rounded=0;entryX=0.5;entryY=1;entryDx=0;entryDy=0;exitX=0.974;exitY=0.992;exitDx=0;exitDy=0;exitPerimeter=0;" edge="1" parent="1" source="TLuGOkzC2Zvtu-69kkCt-98" target="TLuGOkzC2Zvtu-69kkCt-9">
          <mxGeometry width="50" height="50" relative="1" as="geometry">
            <mxPoint x="1293" y="960" as="sourcePoint" />
            <mxPoint x="1492.41" y="120" as="targetPoint" />
          </mxGeometry>
        </mxCell>
        <mxCell id="TLuGOkzC2Zvtu-69kkCt-22" value="" style="endArrow=none;dashed=1;html=1;dashPattern=1 3;strokeWidth=2;rounded=0;exitX=0.304;exitY=1.001;exitDx=0;exitDy=0;exitPerimeter=0;" edge="1" parent="1" source="TLuGOkzC2Zvtu-69kkCt-98" target="TLuGOkzC2Zvtu-69kkCt-21">
          <mxGeometry width="50" height="50" relative="1" as="geometry">
            <mxPoint x="523" y="960" as="sourcePoint" />
            <mxPoint x="523" y="120" as="targetPoint" />
          </mxGeometry>
        </mxCell>
        <mxCell id="TLuGOkzC2Zvtu-69kkCt-21" value="" style="html=1;points=[[0,0,0,0,5],[0,1,0,0,-5],[1,0,0,0,5],[1,1,0,0,-5]];perimeter=orthogonalPerimeter;outlineConnect=0;targetShapes=umlLifeline;portConstraint=eastwest;newEdgeStyle={&quot;curved&quot;:0,&quot;rounded&quot;:0};" vertex="1" parent="1">
          <mxGeometry x="518" y="160" width="10" height="40" as="geometry" />
        </mxCell>
        <mxCell id="TLuGOkzC2Zvtu-69kkCt-23" value="" style="endArrow=block;html=1;rounded=0;endFill=1;" edge="1" parent="1" target="TLuGOkzC2Zvtu-69kkCt-21">
          <mxGeometry width="50" height="50" relative="1" as="geometry">
            <mxPoint x="373" y="160" as="sourcePoint" />
            <mxPoint x="423" y="140" as="targetPoint" />
          </mxGeometry>
        </mxCell>
        <mxCell id="TLuGOkzC2Zvtu-69kkCt-24" value="TenApChangeButton()" style="text;html=1;align=center;verticalAlign=middle;resizable=0;points=[];autosize=1;strokeColor=none;fillColor=none;" vertex="1" parent="1">
          <mxGeometry x="373" y="140" width="140" height="30" as="geometry" />
        </mxCell>
        <mxCell id="TLuGOkzC2Zvtu-69kkCt-25" value="" style="endArrow=block;html=1;rounded=0;endFill=1;" edge="1" parent="1" target="TLuGOkzC2Zvtu-69kkCt-26">
          <mxGeometry width="50" height="50" relative="1" as="geometry">
            <mxPoint x="528" y="200" as="sourcePoint" />
            <mxPoint x="663" y="200" as="targetPoint" />
          </mxGeometry>
        </mxCell>
        <mxCell id="TLuGOkzC2Zvtu-69kkCt-27" value="" style="endArrow=none;dashed=1;html=1;dashPattern=1 3;strokeWidth=2;rounded=0;exitX=0.409;exitY=0.999;exitDx=0;exitDy=0;exitPerimeter=0;" edge="1" parent="1" source="TLuGOkzC2Zvtu-69kkCt-98" target="TLuGOkzC2Zvtu-69kkCt-26">
          <mxGeometry width="50" height="50" relative="1" as="geometry">
            <mxPoint x="643" y="960" as="sourcePoint" />
            <mxPoint x="708" y="120" as="targetPoint" />
          </mxGeometry>
        </mxCell>
        <mxCell id="TLuGOkzC2Zvtu-69kkCt-26" value="" style="html=1;points=[[0,0,0,0,5],[0,1,0,0,-5],[1,0,0,0,5],[1,1,0,0,-5]];perimeter=orthogonalPerimeter;outlineConnect=0;targetShapes=umlLifeline;portConstraint=eastwest;newEdgeStyle={&quot;curved&quot;:0,&quot;rounded&quot;:0};" vertex="1" parent="1">
          <mxGeometry x="638" y="200" width="10" height="40" as="geometry" />
        </mxCell>
        <mxCell id="TLuGOkzC2Zvtu-69kkCt-28" value="display()" style="text;html=1;align=center;verticalAlign=middle;resizable=0;points=[];autosize=1;strokeColor=none;fillColor=none;" vertex="1" parent="1">
          <mxGeometry x="553" y="178" width="70" height="30" as="geometry" />
        </mxCell>
        <mxCell id="TLuGOkzC2Zvtu-69kkCt-29" value="" style="endArrow=block;html=1;rounded=0;endFill=1;" edge="1" parent="1">
          <mxGeometry width="50" height="50" relative="1" as="geometry">
            <mxPoint x="373" y="222.76" as="sourcePoint" />
            <mxPoint x="638" y="222.76" as="targetPoint" />
          </mxGeometry>
        </mxCell>
        <mxCell id="TLuGOkzC2Zvtu-69kkCt-30" value="removeButton()" style="text;html=1;align=center;verticalAlign=middle;resizable=0;points=[];autosize=1;strokeColor=none;fillColor=none;" vertex="1" parent="1">
          <mxGeometry x="408" y="200" width="110" height="30" as="geometry" />
        </mxCell>
        <mxCell id="TLuGOkzC2Zvtu-69kkCt-31" value="" style="endArrow=block;html=1;rounded=0;endFill=1;" edge="1" parent="1" target="TLuGOkzC2Zvtu-69kkCt-32">
          <mxGeometry width="50" height="50" relative="1" as="geometry">
            <mxPoint x="648" y="240" as="sourcePoint" />
            <mxPoint x="1163" y="240" as="targetPoint" />
          </mxGeometry>
        </mxCell>
        <mxCell id="TLuGOkzC2Zvtu-69kkCt-33" value="" style="endArrow=none;dashed=1;html=1;dashPattern=1 3;strokeWidth=2;rounded=0;entryX=0.5;entryY=1;entryDx=0;entryDy=0;" edge="1" parent="1" source="TLuGOkzC2Zvtu-69kkCt-71" target="TLuGOkzC2Zvtu-69kkCt-32">
          <mxGeometry width="50" height="50" relative="1" as="geometry">
            <mxPoint x="1173" y="960" as="sourcePoint" />
            <mxPoint x="1173" y="120" as="targetPoint" />
          </mxGeometry>
        </mxCell>
        <mxCell id="TLuGOkzC2Zvtu-69kkCt-32" value="" style="html=1;points=[[0,0,0,0,5],[0,1,0,0,-5],[1,0,0,0,5],[1,1,0,0,-5]];perimeter=orthogonalPerimeter;outlineConnect=0;targetShapes=umlLifeline;portConstraint=eastwest;newEdgeStyle={&quot;curved&quot;:0,&quot;rounded&quot;:0};" vertex="1" parent="1">
          <mxGeometry x="1168" y="240" width="10" height="210" as="geometry" />
        </mxCell>
        <mxCell id="TLuGOkzC2Zvtu-69kkCt-34" value="searchTenants()" style="text;html=1;align=center;verticalAlign=middle;resizable=0;points=[];autosize=1;strokeColor=none;fillColor=none;" vertex="1" parent="1">
          <mxGeometry x="773" y="220" width="110" height="30" as="geometry" />
        </mxCell>
        <mxCell id="TLuGOkzC2Zvtu-69kkCt-36" value="" style="endArrow=none;dashed=1;html=1;dashPattern=1 3;strokeWidth=2;rounded=0;entryX=0.5;entryY=1;entryDx=0;entryDy=0;" edge="1" parent="1" source="TLuGOkzC2Zvtu-69kkCt-50" target="TLuGOkzC2Zvtu-69kkCt-35">
          <mxGeometry width="50" height="50" relative="1" as="geometry">
            <mxPoint x="983" y="510" as="sourcePoint" />
            <mxPoint x="983" y="120" as="targetPoint" />
          </mxGeometry>
        </mxCell>
        <mxCell id="TLuGOkzC2Zvtu-69kkCt-35" value="" style="html=1;points=[[0,0,0,0,5],[0,1,0,0,-5],[1,0,0,0,5],[1,1,0,0,-5]];perimeter=orthogonalPerimeter;outlineConnect=0;targetShapes=umlLifeline;portConstraint=eastwest;newEdgeStyle={&quot;curved&quot;:0,&quot;rounded&quot;:0};" vertex="1" parent="1">
          <mxGeometry x="978" y="270" width="10" height="30" as="geometry" />
        </mxCell>
        <mxCell id="TLuGOkzC2Zvtu-69kkCt-38" value="" style="endArrow=block;html=1;rounded=0;endFill=1;" edge="1" parent="1" source="TLuGOkzC2Zvtu-69kkCt-32">
          <mxGeometry width="50" height="50" relative="1" as="geometry">
            <mxPoint x="1253" y="270" as="sourcePoint" />
            <mxPoint x="988" y="270" as="targetPoint" />
          </mxGeometry>
        </mxCell>
        <mxCell id="TLuGOkzC2Zvtu-69kkCt-39" value="&amp;nbsp; queryTenant()" style="text;html=1;align=center;verticalAlign=middle;resizable=0;points=[];autosize=1;strokeColor=none;fillColor=none;" vertex="1" parent="1">
          <mxGeometry x="1023" y="250" width="100" height="30" as="geometry" />
        </mxCell>
        <mxCell id="TLuGOkzC2Zvtu-69kkCt-40" value="" style="endArrow=block;html=1;rounded=0;endFill=1;" edge="1" parent="1" target="TLuGOkzC2Zvtu-69kkCt-32">
          <mxGeometry width="50" height="50" relative="1" as="geometry">
            <mxPoint x="988" y="300" as="sourcePoint" />
            <mxPoint x="1108" y="300" as="targetPoint" />
          </mxGeometry>
        </mxCell>
        <mxCell id="TLuGOkzC2Zvtu-69kkCt-41" value="return results" style="text;html=1;align=center;verticalAlign=middle;resizable=0;points=[];autosize=1;strokeColor=none;fillColor=none;" vertex="1" parent="1">
          <mxGeometry x="1033" y="280" width="90" height="30" as="geometry" />
        </mxCell>
        <mxCell id="TLuGOkzC2Zvtu-69kkCt-43" value="" style="endArrow=none;dashed=1;html=1;dashPattern=1 3;strokeWidth=2;rounded=0;entryX=0.5;entryY=1;entryDx=0;entryDy=0;exitX=0.509;exitY=1;exitDx=0;exitDy=0;exitPerimeter=0;" edge="1" parent="1" source="TLuGOkzC2Zvtu-69kkCt-98" target="TLuGOkzC2Zvtu-69kkCt-42">
          <mxGeometry width="50" height="50" relative="1" as="geometry">
            <mxPoint x="758" y="960" as="sourcePoint" />
            <mxPoint x="758" y="120" as="targetPoint" />
          </mxGeometry>
        </mxCell>
        <mxCell id="TLuGOkzC2Zvtu-69kkCt-42" value="" style="html=1;points=[[0,0,0,0,5],[0,1,0,0,-5],[1,0,0,0,5],[1,1,0,0,-5]];perimeter=orthogonalPerimeter;outlineConnect=0;targetShapes=umlLifeline;portConstraint=eastwest;newEdgeStyle={&quot;curved&quot;:0,&quot;rounded&quot;:0};" vertex="1" parent="1">
          <mxGeometry x="753" y="330" width="10" height="50" as="geometry" />
        </mxCell>
        <mxCell id="TLuGOkzC2Zvtu-69kkCt-44" value="" style="endArrow=block;html=1;rounded=0;endFill=1;" edge="1" parent="1" target="TLuGOkzC2Zvtu-69kkCt-42">
          <mxGeometry width="50" height="50" relative="1" as="geometry">
            <mxPoint x="1168" y="330" as="sourcePoint" />
            <mxPoint x="988" y="330" as="targetPoint" />
          </mxGeometry>
        </mxCell>
        <mxCell id="TLuGOkzC2Zvtu-69kkCt-45" value="&amp;nbsp; &amp;nbsp;showResults()" style="text;html=1;align=center;verticalAlign=middle;resizable=0;points=[];autosize=1;strokeColor=none;fillColor=none;" vertex="1" parent="1">
          <mxGeometry x="878" y="308" width="110" height="30" as="geometry" />
        </mxCell>
        <mxCell id="TLuGOkzC2Zvtu-69kkCt-46" value="" style="endArrow=block;html=1;rounded=0;endFill=1;" edge="1" parent="1" target="TLuGOkzC2Zvtu-69kkCt-42">
          <mxGeometry width="50" height="50" relative="1" as="geometry">
            <mxPoint x="373" y="354.62" as="sourcePoint" />
            <mxPoint x="638" y="354.62" as="targetPoint" />
          </mxGeometry>
        </mxCell>
        <mxCell id="TLuGOkzC2Zvtu-69kkCt-47" value="make selection &amp;amp; confirm()" style="text;html=1;align=center;verticalAlign=middle;resizable=0;points=[];autosize=1;strokeColor=none;fillColor=none;" vertex="1" parent="1">
          <mxGeometry x="433" y="330" width="170" height="30" as="geometry" />
        </mxCell>
        <mxCell id="TLuGOkzC2Zvtu-69kkCt-48" value="" style="endArrow=open;html=1;rounded=0;dashed=1;endFill=0;" edge="1" parent="1" target="TLuGOkzC2Zvtu-69kkCt-32">
          <mxGeometry width="50" height="50" relative="1" as="geometry">
            <mxPoint x="753" y="379.35" as="sourcePoint" />
            <mxPoint x="863" y="379.35" as="targetPoint" />
          </mxGeometry>
        </mxCell>
        <mxCell id="TLuGOkzC2Zvtu-69kkCt-49" value="return selection" style="text;html=1;align=center;verticalAlign=middle;resizable=0;points=[];autosize=1;strokeColor=none;fillColor=none;" vertex="1" parent="1">
          <mxGeometry x="878" y="360" width="110" height="30" as="geometry" />
        </mxCell>
        <mxCell id="TLuGOkzC2Zvtu-69kkCt-51" value="" style="endArrow=none;dashed=1;html=1;dashPattern=1 3;strokeWidth=2;rounded=0;entryX=0.5;entryY=1;entryDx=0;entryDy=0;" edge="1" parent="1" source="TLuGOkzC2Zvtu-69kkCt-74" target="TLuGOkzC2Zvtu-69kkCt-50">
          <mxGeometry width="50" height="50" relative="1" as="geometry">
            <mxPoint x="983" y="960" as="sourcePoint" />
            <mxPoint x="983" y="300" as="targetPoint" />
          </mxGeometry>
        </mxCell>
        <mxCell id="TLuGOkzC2Zvtu-69kkCt-50" value="" style="html=1;points=[[0,0,0,0,5],[0,1,0,0,-5],[1,0,0,0,5],[1,1,0,0,-5]];perimeter=orthogonalPerimeter;outlineConnect=0;targetShapes=umlLifeline;portConstraint=eastwest;newEdgeStyle={&quot;curved&quot;:0,&quot;rounded&quot;:0};" vertex="1" parent="1">
          <mxGeometry x="978" y="410" width="10" height="20" as="geometry" />
        </mxCell>
        <mxCell id="TLuGOkzC2Zvtu-69kkCt-52" value="" style="endArrow=block;html=1;rounded=0;endFill=1;" edge="1" parent="1">
          <mxGeometry width="50" height="50" relative="1" as="geometry">
            <mxPoint x="1168" y="410" as="sourcePoint" />
            <mxPoint x="988" y="410" as="targetPoint" />
          </mxGeometry>
        </mxCell>
        <mxCell id="TLuGOkzC2Zvtu-69kkCt-53" value="deleteTenant()" style="text;html=1;align=center;verticalAlign=middle;resizable=0;points=[];autosize=1;strokeColor=none;fillColor=none;" vertex="1" parent="1">
          <mxGeometry x="1013" y="390" width="100" height="30" as="geometry" />
        </mxCell>
        <mxCell id="TLuGOkzC2Zvtu-69kkCt-57" value="" style="endArrow=none;dashed=1;html=1;dashPattern=1 3;strokeWidth=2;rounded=0;entryX=0.5;entryY=1;entryDx=0;entryDy=0;" edge="1" parent="1" source="TLuGOkzC2Zvtu-69kkCt-80" target="TLuGOkzC2Zvtu-69kkCt-54">
          <mxGeometry width="50" height="50" relative="1" as="geometry">
            <mxPoint x="873" y="956.54541015625" as="sourcePoint" />
            <mxPoint x="873" y="120" as="targetPoint" />
          </mxGeometry>
        </mxCell>
        <mxCell id="TLuGOkzC2Zvtu-69kkCt-54" value="" style="html=1;points=[[0,0,0,0,5],[0,1,0,0,-5],[1,0,0,0,5],[1,1,0,0,-5]];perimeter=orthogonalPerimeter;outlineConnect=0;targetShapes=umlLifeline;portConstraint=eastwest;newEdgeStyle={&quot;curved&quot;:0,&quot;rounded&quot;:0};" vertex="1" parent="1">
          <mxGeometry x="868" y="450" width="10" height="90" as="geometry" />
        </mxCell>
        <mxCell id="TLuGOkzC2Zvtu-69kkCt-58" value="" style="endArrow=block;html=1;rounded=0;endFill=1;" edge="1" parent="1" target="TLuGOkzC2Zvtu-69kkCt-54">
          <mxGeometry width="50" height="50" relative="1" as="geometry">
            <mxPoint x="1168" y="450" as="sourcePoint" />
            <mxPoint x="988" y="450" as="targetPoint" />
          </mxGeometry>
        </mxCell>
        <mxCell id="TLuGOkzC2Zvtu-69kkCt-59" value="display()" style="text;html=1;align=center;verticalAlign=middle;resizable=0;points=[];autosize=1;strokeColor=none;fillColor=none;" vertex="1" parent="1">
          <mxGeometry x="1038" y="430" width="70" height="30" as="geometry" />
        </mxCell>
        <mxCell id="TLuGOkzC2Zvtu-69kkCt-60" value="" style="endArrow=block;html=1;rounded=0;endFill=1;" edge="1" parent="1" target="TLuGOkzC2Zvtu-69kkCt-54">
          <mxGeometry width="50" height="50" relative="1" as="geometry">
            <mxPoint x="373" y="474.74" as="sourcePoint" />
            <mxPoint x="753" y="475.12" as="targetPoint" />
          </mxGeometry>
        </mxCell>
        <mxCell id="TLuGOkzC2Zvtu-69kkCt-62" value="fill form &amp;amp; confirm()" style="text;html=1;align=center;verticalAlign=middle;resizable=0;points=[];autosize=1;strokeColor=none;fillColor=none;" vertex="1" parent="1">
          <mxGeometry x="458" y="450" width="120" height="30" as="geometry" />
        </mxCell>
        <mxCell id="TLuGOkzC2Zvtu-69kkCt-65" value="" style="endArrow=block;html=1;rounded=0;endFill=1;" edge="1" parent="1">
          <mxGeometry width="50" height="50" relative="1" as="geometry">
            <mxPoint x="878" y="490" as="sourcePoint" />
            <mxPoint x="878" y="510" as="targetPoint" />
            <Array as="points">
              <mxPoint x="918" y="490" />
              <mxPoint x="918" y="510" />
            </Array>
          </mxGeometry>
        </mxCell>
        <mxCell id="TLuGOkzC2Zvtu-69kkCt-69" value="checkform()" style="text;html=1;align=center;verticalAlign=middle;resizable=0;points=[];autosize=1;strokeColor=none;fillColor=none;" vertex="1" parent="1">
          <mxGeometry x="913" y="488" width="90" height="30" as="geometry" />
        </mxCell>
        <mxCell id="TLuGOkzC2Zvtu-69kkCt-70" value="" style="endArrow=block;html=1;rounded=0;endFill=1;" edge="1" parent="1" target="TLuGOkzC2Zvtu-69kkCt-71">
          <mxGeometry width="50" height="50" relative="1" as="geometry">
            <mxPoint x="878" y="540" as="sourcePoint" />
            <mxPoint x="1173" y="540" as="targetPoint" />
          </mxGeometry>
        </mxCell>
        <mxCell id="TLuGOkzC2Zvtu-69kkCt-72" value="" style="endArrow=none;dashed=1;html=1;dashPattern=1 3;strokeWidth=2;rounded=0;entryX=0.5;entryY=1;entryDx=0;entryDy=0;" edge="1" parent="1" source="TLuGOkzC2Zvtu-69kkCt-83" target="TLuGOkzC2Zvtu-69kkCt-71">
          <mxGeometry width="50" height="50" relative="1" as="geometry">
            <mxPoint x="1173" y="960" as="sourcePoint" />
            <mxPoint x="1173" y="450" as="targetPoint" />
          </mxGeometry>
        </mxCell>
        <mxCell id="TLuGOkzC2Zvtu-69kkCt-71" value="" style="html=1;points=[[0,0,0,0,5],[0,1,0,0,-5],[1,0,0,0,5],[1,1,0,0,-5]];perimeter=orthogonalPerimeter;outlineConnect=0;targetShapes=umlLifeline;portConstraint=eastwest;newEdgeStyle={&quot;curved&quot;:0,&quot;rounded&quot;:0};" vertex="1" parent="1">
          <mxGeometry x="1168" y="540" width="10" height="40" as="geometry" />
        </mxCell>
        <mxCell id="TLuGOkzC2Zvtu-69kkCt-73" value="sendTntInfo()" style="text;html=1;align=center;verticalAlign=middle;resizable=0;points=[];autosize=1;strokeColor=none;fillColor=none;" vertex="1" parent="1">
          <mxGeometry x="988" y="518" width="90" height="30" as="geometry" />
        </mxCell>
        <mxCell id="TLuGOkzC2Zvtu-69kkCt-75" value="" style="endArrow=none;dashed=1;html=1;dashPattern=1 3;strokeWidth=2;rounded=0;entryX=0.5;entryY=1;entryDx=0;entryDy=0;" edge="1" parent="1" source="TLuGOkzC2Zvtu-69kkCt-91" target="TLuGOkzC2Zvtu-69kkCt-74">
          <mxGeometry width="50" height="50" relative="1" as="geometry">
            <mxPoint x="983" y="960" as="sourcePoint" />
            <mxPoint x="983" y="430" as="targetPoint" />
          </mxGeometry>
        </mxCell>
        <mxCell id="TLuGOkzC2Zvtu-69kkCt-74" value="" style="html=1;points=[[0,0,0,0,5],[0,1,0,0,-5],[1,0,0,0,5],[1,1,0,0,-5]];perimeter=orthogonalPerimeter;outlineConnect=0;targetShapes=umlLifeline;portConstraint=eastwest;newEdgeStyle={&quot;curved&quot;:0,&quot;rounded&quot;:0};" vertex="1" parent="1">
          <mxGeometry x="978" y="580" width="10" height="40" as="geometry" />
        </mxCell>
        <mxCell id="TLuGOkzC2Zvtu-69kkCt-76" value="" style="endArrow=block;html=1;rounded=0;endFill=1;" edge="1" parent="1" target="TLuGOkzC2Zvtu-69kkCt-74">
          <mxGeometry width="50" height="50" relative="1" as="geometry">
            <mxPoint x="1168" y="579.5" as="sourcePoint" />
            <mxPoint x="993" y="580" as="targetPoint" />
          </mxGeometry>
        </mxCell>
        <mxCell id="TLuGOkzC2Zvtu-69kkCt-77" value="createTenant()" style="text;html=1;align=center;verticalAlign=middle;resizable=0;points=[];autosize=1;strokeColor=none;fillColor=none;" vertex="1" parent="1">
          <mxGeometry x="1028" y="558" width="100" height="30" as="geometry" />
        </mxCell>
        <mxCell id="TLuGOkzC2Zvtu-69kkCt-78" value="" style="endArrow=block;html=1;rounded=0;endFill=1;" edge="1" parent="1">
          <mxGeometry width="50" height="50" relative="1" as="geometry">
            <mxPoint x="988" y="600" as="sourcePoint" />
            <mxPoint x="988" y="620" as="targetPoint" />
            <Array as="points">
              <mxPoint x="1028" y="600" />
              <mxPoint x="1028" y="620" />
            </Array>
          </mxGeometry>
        </mxCell>
        <mxCell id="TLuGOkzC2Zvtu-69kkCt-79" value="AddtoList()" style="text;html=1;align=center;verticalAlign=middle;resizable=0;points=[];autosize=1;strokeColor=none;fillColor=none;" vertex="1" parent="1">
          <mxGeometry x="1018" y="598" width="80" height="30" as="geometry" />
        </mxCell>
        <mxCell id="TLuGOkzC2Zvtu-69kkCt-80" value="" style="html=1;points=[[0,0,0,0,5],[0,1,0,0,-5],[1,0,0,0,5],[1,1,0,0,-5]];perimeter=orthogonalPerimeter;outlineConnect=0;targetShapes=umlLifeline;portConstraint=eastwest;newEdgeStyle={&quot;curved&quot;:0,&quot;rounded&quot;:0};" vertex="1" parent="1">
          <mxGeometry x="868" y="670" width="10" height="120" as="geometry" />
        </mxCell>
        <mxCell id="TLuGOkzC2Zvtu-69kkCt-82" value="" style="endArrow=block;html=1;rounded=0;endFill=1;" edge="1" parent="1">
          <mxGeometry width="50" height="50" relative="1" as="geometry">
            <mxPoint x="878" y="670" as="sourcePoint" />
            <mxPoint x="1168" y="670" as="targetPoint" />
          </mxGeometry>
        </mxCell>
        <mxCell id="TLuGOkzC2Zvtu-69kkCt-84" value="" style="endArrow=none;dashed=1;html=1;dashPattern=1 3;strokeWidth=2;rounded=0;entryX=0.5;entryY=1;entryDx=0;entryDy=0;exitX=0.87;exitY=0.989;exitDx=0;exitDy=0;exitPerimeter=0;" edge="1" parent="1" source="TLuGOkzC2Zvtu-69kkCt-98" target="TLuGOkzC2Zvtu-69kkCt-83">
          <mxGeometry width="50" height="50" relative="1" as="geometry">
            <mxPoint x="1173" y="960" as="sourcePoint" />
            <mxPoint x="1173" y="580" as="targetPoint" />
          </mxGeometry>
        </mxCell>
        <mxCell id="TLuGOkzC2Zvtu-69kkCt-83" value="" style="html=1;points=[[0,0,0,0,5],[0,1,0,0,-5],[1,0,0,0,5],[1,1,0,0,-5]];perimeter=orthogonalPerimeter;outlineConnect=0;targetShapes=umlLifeline;portConstraint=eastwest;newEdgeStyle={&quot;curved&quot;:0,&quot;rounded&quot;:0};" vertex="1" parent="1">
          <mxGeometry x="1168" y="670" width="10" height="70" as="geometry" />
        </mxCell>
        <mxCell id="TLuGOkzC2Zvtu-69kkCt-85" value="sendTntInfo()" style="text;html=1;align=center;verticalAlign=middle;resizable=0;points=[];autosize=1;strokeColor=none;fillColor=none;" vertex="1" parent="1">
          <mxGeometry x="988" y="650" width="90" height="30" as="geometry" />
        </mxCell>
        <mxCell id="TLuGOkzC2Zvtu-69kkCt-86" value="" style="html=1;points=[[0,0,0,0,5],[0,1,0,0,-5],[1,0,0,0,5],[1,1,0,0,-5]];perimeter=orthogonalPerimeter;outlineConnect=0;targetShapes=umlLifeline;portConstraint=eastwest;newEdgeStyle={&quot;curved&quot;:0,&quot;rounded&quot;:0};" vertex="1" parent="1">
          <mxGeometry x="1288" y="690" width="10" height="30" as="geometry" />
        </mxCell>
        <mxCell id="TLuGOkzC2Zvtu-69kkCt-87" value="" style="endArrow=block;html=1;rounded=0;endFill=1;" edge="1" parent="1">
          <mxGeometry width="50" height="50" relative="1" as="geometry">
            <mxPoint x="1178" y="690" as="sourcePoint" />
            <mxPoint x="1288" y="690" as="targetPoint" />
          </mxGeometry>
        </mxCell>
        <mxCell id="TLuGOkzC2Zvtu-69kkCt-88" value="getOwner()" style="text;html=1;align=center;verticalAlign=middle;resizable=0;points=[];autosize=1;strokeColor=none;fillColor=none;" vertex="1" parent="1">
          <mxGeometry x="1193" y="670" width="80" height="30" as="geometry" />
        </mxCell>
        <mxCell id="TLuGOkzC2Zvtu-69kkCt-89" value="" style="endArrow=block;html=1;rounded=0;endFill=1;" edge="1" parent="1">
          <mxGeometry width="50" height="50" relative="1" as="geometry">
            <mxPoint x="1288" y="720" as="sourcePoint" />
            <mxPoint x="1178" y="720" as="targetPoint" />
          </mxGeometry>
        </mxCell>
        <mxCell id="TLuGOkzC2Zvtu-69kkCt-90" value="return result" style="text;html=1;align=center;verticalAlign=middle;resizable=0;points=[];autosize=1;strokeColor=none;fillColor=none;" vertex="1" parent="1">
          <mxGeometry x="1193" y="700" width="90" height="30" as="geometry" />
        </mxCell>
        <mxCell id="TLuGOkzC2Zvtu-69kkCt-92" value="" style="endArrow=none;dashed=1;html=1;dashPattern=1 3;strokeWidth=2;rounded=0;entryX=0.5;entryY=1;entryDx=0;entryDy=0;exitX=0.705;exitY=1;exitDx=0;exitDy=0;exitPerimeter=0;" edge="1" parent="1" source="TLuGOkzC2Zvtu-69kkCt-98" target="TLuGOkzC2Zvtu-69kkCt-91">
          <mxGeometry width="50" height="50" relative="1" as="geometry">
            <mxPoint x="983" y="960" as="sourcePoint" />
            <mxPoint x="983" y="620" as="targetPoint" />
          </mxGeometry>
        </mxCell>
        <mxCell id="TLuGOkzC2Zvtu-69kkCt-91" value="" style="html=1;points=[[0,0,0,0,5],[0,1,0,0,-5],[1,0,0,0,5],[1,1,0,0,-5]];perimeter=orthogonalPerimeter;outlineConnect=0;targetShapes=umlLifeline;portConstraint=eastwest;newEdgeStyle={&quot;curved&quot;:0,&quot;rounded&quot;:0};" vertex="1" parent="1">
          <mxGeometry x="978" y="740" width="10" height="40" as="geometry" />
        </mxCell>
        <mxCell id="TLuGOkzC2Zvtu-69kkCt-94" value="" style="endArrow=block;html=1;rounded=0;endFill=1;" edge="1" parent="1" target="TLuGOkzC2Zvtu-69kkCt-91">
          <mxGeometry width="50" height="50" relative="1" as="geometry">
            <mxPoint x="1168" y="739.51" as="sourcePoint" />
            <mxPoint x="1058" y="739.51" as="targetPoint" />
          </mxGeometry>
        </mxCell>
        <mxCell id="TLuGOkzC2Zvtu-69kkCt-95" value="createTenant()" style="text;html=1;align=center;verticalAlign=middle;resizable=0;points=[];autosize=1;strokeColor=none;fillColor=none;" vertex="1" parent="1">
          <mxGeometry x="1018" y="720" width="100" height="30" as="geometry" />
        </mxCell>
        <mxCell id="TLuGOkzC2Zvtu-69kkCt-96" value="" style="endArrow=block;html=1;rounded=0;endFill=1;" edge="1" parent="1">
          <mxGeometry width="50" height="50" relative="1" as="geometry">
            <mxPoint x="988" y="760" as="sourcePoint" />
            <mxPoint x="988" y="780" as="targetPoint" />
            <Array as="points">
              <mxPoint x="1028" y="760" />
              <mxPoint x="1028" y="780" />
            </Array>
          </mxGeometry>
        </mxCell>
        <mxCell id="TLuGOkzC2Zvtu-69kkCt-97" value="AddtoList()" style="text;html=1;align=center;verticalAlign=middle;resizable=0;points=[];autosize=1;strokeColor=none;fillColor=none;" vertex="1" parent="1">
          <mxGeometry x="1018" y="760" width="80" height="30" as="geometry" />
        </mxCell>
        <mxCell id="TLuGOkzC2Zvtu-69kkCt-98" value="alternative" style="shape=umlFrame;whiteSpace=wrap;html=1;pointerEvents=0;" vertex="1" parent="1">
          <mxGeometry x="173" y="520" width="1150" height="270" as="geometry" />
        </mxCell>
        <mxCell id="TLuGOkzC2Zvtu-69kkCt-99" value="" style="endArrow=none;dashed=1;html=1;dashPattern=1 3;strokeWidth=2;rounded=0;exitX=0.003;exitY=0.439;exitDx=0;exitDy=0;exitPerimeter=0;" edge="1" parent="1" source="TLuGOkzC2Zvtu-69kkCt-98">
          <mxGeometry width="50" height="50" relative="1" as="geometry">
            <mxPoint x="533" y="970" as="sourcePoint" />
            <mxPoint x="1323" y="640" as="targetPoint" />
          </mxGeometry>
        </mxCell>
        <mxCell id="TLuGOkzC2Zvtu-69kkCt-100" value="Βασική ροή" style="text;html=1;align=center;verticalAlign=middle;resizable=0;points=[];autosize=1;strokeColor=none;fillColor=none;" vertex="1" parent="1">
          <mxGeometry x="220" y="580" width="79" height="26" as="geometry" />
        </mxCell>
        <mxCell id="TLuGOkzC2Zvtu-69kkCt-101" value="invalid information" style="text;html=1;align=center;verticalAlign=middle;resizable=0;points=[];autosize=1;strokeColor=none;fillColor=none;" vertex="1" parent="1">
          <mxGeometry x="205" y="692" width="115" height="26" as="geometry" />
        </mxCell>
      </root>
    </mxGraphModel>
  </diagram>
</mxfile>
